<svg width="16" height="16" viewBox="0 0 16 16" fill="none" xmlns="http://www.w3.org/2000/svg">
<path d="M7.99995 1.33345C11.6819 1.33345 14.6666 4.31842 14.6666 8.00012C14.6666 11.6818 11.6819 14.6668 7.99995 14.6668C4.31847 14.6668 1.33328 11.6816 1.33328 8.00012C1.33328 4.31864 4.31847 1.33345 7.99995 1.33345ZM7.99995 2.33345C4.87076 2.33345 2.33328 4.87093 2.33328 8.00012C2.33328 11.1293 4.87076 13.6668 7.99995 13.6668C11.1296 13.6668 13.6666 11.1295 13.6666 8.00012C13.6666 4.87069 11.1296 2.33345 7.99995 2.33345ZM8.00335 10.0307C8.27949 10.0307 8.50335 10.2546 8.50335 10.5307C8.50335 10.7838 8.31525 10.993 8.0712 11.0262L7.99668 11.0307C7.72054 11.0307 7.49668 10.8069 7.49668 10.5307C7.49668 10.2776 7.68478 10.0684 7.92884 10.0353L8.00335 10.0307ZM7.99668 4.96952C8.24981 4.96952 8.45901 5.15762 8.49212 5.40167L8.49668 5.46952V8.41552C8.49668 8.69166 8.27282 8.91552 7.99668 8.91552C7.74355 8.91552 7.53435 8.72741 7.50125 8.48336L7.49668 8.41552V5.46952C7.49668 5.19337 7.72054 4.96952 7.99668 4.96952Z" fill="#ABBBC2"/>
</svg>
