<svg width="18" height="16" viewBox="0 0 18 16" fill="none" xmlns="http://www.w3.org/2000/svg">
<path d="M14.1978 9.72707C15.9272 9.72707 17.333 11.1148 17.333 12.8219C17.333 14.528 15.9272 15.9167 14.1978 15.9167C12.4684 15.9167 11.0626 14.528 11.0626 12.8219C11.0626 11.1148 12.4684 9.72707 14.1978 9.72707ZM14.1978 11.1787C13.2792 11.1787 12.5331 11.9151 12.5331 12.8219C12.5331 13.7277 13.2792 14.4651 14.1978 14.4651C15.1164 14.4651 15.8625 13.7277 15.8625 12.8219C15.8625 11.9151 15.1164 11.1787 14.1978 11.1787ZM7.43095 12.0958C7.83682 12.0958 8.16623 12.4209 8.16623 12.8216C8.16623 13.2222 7.83682 13.5474 7.43095 13.5474H1.40262C0.996749 13.5474 0.667343 13.2222 0.667343 12.8216C0.667343 12.4209 0.996749 12.0958 1.40262 12.0958H7.43095ZM3.8019 0.0833435C5.53128 0.0833435 6.93713 1.47204 6.93713 3.17815C6.93713 4.88426 5.53128 6.27295 3.8019 6.27295C2.07349 6.27295 0.666656 4.88426 0.666656 3.17815C0.666656 1.47204 2.07349 0.0833435 3.8019 0.0833435ZM3.8019 1.53494C2.88426 1.53494 2.13722 2.27235 2.13722 3.17815C2.13722 4.08394 2.88426 4.82135 3.8019 4.82135C4.72051 4.82135 5.46657 4.08394 5.46657 3.17815C5.46657 2.27235 4.72051 1.53494 3.8019 1.53494ZM16.598 2.45254C17.0039 2.45254 17.3333 2.7777 17.3333 3.17834C17.3333 3.57898 17.0039 3.90414 16.598 3.90414H10.5687C10.1629 3.90414 9.83346 3.57898 9.83346 3.17834C9.83346 2.7777 10.1629 2.45254 10.5687 2.45254H16.598Z" fill="white"/>
</svg>
