<svg width="14" height="14" viewBox="0 0 14 14" fill="none" xmlns="http://www.w3.org/2000/svg">
<rect width="14" height="14" fill="#F5F5F5"/>
<rect x="-153" y="-114" width="1194" height="834" rx="16" fill="#252836"/>
<rect x="-25" y="-27" width="275" height="723" rx="8" fill="#1F1D2B"/>
<path d="M3.32208 0.87685C4.49361 0.500011 5.7613 0.635617 6.822 1.23748L6.9976 1.34285L7.17635 1.23689C8.182 0.667524 9.37493 0.515381 10.4975 0.824144L10.6747 0.87689C13.1231 1.66519 14.2194 4.33866 13.3958 6.89676C12.9828 8.08673 12.3056 9.16563 11.4116 10.0549C10.1951 11.2363 8.85413 12.2796 7.41456 13.1648L7.26173 13.2598C7.10655 13.3563 6.91042 13.3579 6.75364 13.2641L6.58993 13.1661C5.14837 12.2796 3.80735 11.2363 2.5867 10.0508C1.69691 9.16563 1.01966 8.08673 0.603223 6.88633C-0.217414 4.33711 0.874355 1.66491 3.32208 0.87685ZM6.58311 2.23617C5.71372 1.64192 4.62222 1.48225 3.62103 1.80429C1.72498 2.41474 0.865395 4.51866 1.52806 6.57756C1.89252 7.62782 2.49004 8.57971 3.27056 9.35622C4.43584 10.4879 5.72034 11.4872 7.09604 12.3332L7.00085 12.2732L7.31276 12.0771C8.40171 11.374 9.42735 10.5761 10.3758 9.69473L10.7278 9.36032C11.5125 8.57971 12.11 7.62782 12.471 6.58798C13.1365 4.52063 12.2731 2.41522 10.3761 1.80445C9.32485 1.4672 8.17735 1.66037 7.29067 2.32416C7.12043 2.4516 6.88716 2.45407 6.71426 2.33024L6.58311 2.23617ZM9.58018 3.32248C10.4611 3.60366 11.0859 4.39238 11.1638 5.31901C11.1864 5.58712 10.9871 5.82275 10.7188 5.84528C10.4505 5.86782 10.2146 5.66874 10.1921 5.40063C10.1471 4.86534 9.78762 4.41156 9.28345 4.25064C9.02693 4.16876 8.88542 3.89462 8.96736 3.63832C9.0493 3.38201 9.32367 3.24061 9.58018 3.32248Z" fill="#ABBBC2"/>
</svg>
