<svg width="14" height="14" viewBox="0 0 14 14" fill="none" xmlns="http://www.w3.org/2000/svg">
<g id="Iconly/Light outline/Info Circle">
<g id="Info Circle">
<path id="Vector" d="M6.99995 0.33345C10.6819 0.33345 13.6666 3.31842 13.6666 7.00012C13.6666 10.6818 10.6819 13.6668 6.99995 13.6668C3.31847 13.6668 0.333282 10.6816 0.333282 7.00012C0.333282 3.31864 3.31847 0.33345 6.99995 0.33345ZM6.99995 1.33345C3.87076 1.33345 1.33328 3.87093 1.33328 7.00012C1.33328 10.1293 3.87076 12.6668 6.99995 12.6668C10.1296 12.6668 12.6666 10.1295 12.6666 7.00012C12.6666 3.87069 10.1296 1.33345 6.99995 1.33345ZM7.00335 9.03072C7.27949 9.03072 7.50335 9.25457 7.50335 9.53072C7.50335 9.78385 7.31525 9.99304 7.0712 10.0262L6.99668 10.0307C6.72054 10.0307 6.49668 9.80686 6.49668 9.53072C6.49668 9.27759 6.68478 9.06839 6.92884 9.03528L7.00335 9.03072ZM6.99668 3.96952C7.24981 3.96952 7.45901 4.15762 7.49212 4.40167L7.49668 4.46952V7.41552C7.49668 7.69166 7.27282 7.91552 6.99668 7.91552C6.74355 7.91552 6.53435 7.72741 6.50125 7.48336L6.49668 7.41552V4.46952C6.49668 4.19337 6.72054 3.96952 6.99668 3.96952Z" fill="#ABBBC2"/>
</g>
</g>
</svg>
