<svg width="12" height="14" viewBox="0 0 12 14" fill="none" xmlns="http://www.w3.org/2000/svg">
<path d="M6.00658 0.33336C7.5495 0.33336 8.90513 1.29934 9.40199 2.71109C9.49382 2.97203 9.35326 3.2568 9.08802 3.34715C8.82279 3.4375 8.53333 3.2992 8.44149 3.03827C8.0853 2.02619 7.11298 1.33336 6.00457 1.33336C4.62657 1.32798 3.49689 2.38763 3.42197 3.72384L3.41804 3.85399L3.41801 4.75067L8.58889 4.7509C10.2401 4.7509 11.5877 6.03047 11.6633 7.63692L11.6667 7.77949V10.6381C11.6667 12.3107 10.2887 13.6667 8.58889 13.6667H3.41113C1.71137 13.6667 0.333344 12.3107 0.333344 10.6381V7.77949C0.333344 6.45485 1.1976 5.32884 2.40148 4.91763L2.4016 3.8518C2.41029 1.90055 4.02502 0.325656 6.00658 0.33336ZM8.58889 5.75087H3.41113C2.27278 5.75087 1.34979 6.65907 1.34979 7.77949V10.6381C1.34979 11.7585 2.27278 12.6667 3.41113 12.6667H8.58889C9.72724 12.6667 10.6502 11.7585 10.6502 10.6381V7.77949C10.6502 6.65907 9.72724 5.75087 8.58889 5.75087ZM6.00015 7.96828C6.25744 7.96828 6.47008 8.15638 6.50373 8.40042L6.50837 8.46827V9.94956C6.50837 10.2257 6.28083 10.4495 6.00015 10.4495C5.74285 10.4495 5.53022 10.2615 5.49656 10.0174L5.49192 9.94956V8.46827C5.49192 8.19213 5.71946 7.96828 6.00015 7.96828Z" fill="#ABBBC2"/>
</svg>
