<svg width="12" height="14" viewBox="0 0 12 14" fill="none" xmlns="http://www.w3.org/2000/svg">
<path d="M7.73865 12.1271C7.93637 12.2881 7.96771 12.5809 7.80864 12.781C7.69105 12.929 7.55517 13.0615 7.41116 13.17C6.92607 13.5506 6.30935 13.7232 5.69688 13.6503C5.08386 13.5773 4.52468 13.2642 4.14307 12.7793C3.98494 12.5784 4.01765 12.2858 4.21613 12.1257C4.4146 11.9656 4.70369 11.9987 4.86181 12.1996C5.09196 12.4921 5.43114 12.682 5.80427 12.7264C6.17795 12.7709 6.55384 12.6657 6.85505 12.4295C6.94386 12.3625 7.02368 12.2847 7.09262 12.1979C7.25169 11.9978 7.54093 11.9661 7.73865 12.1271ZM1.43476 4.99983L1.44297 4.6026C1.44883 4.4327 1.45792 4.27499 1.47124 4.12064C1.67104 1.96304 3.73044 0.333332 5.97654 0.333332H6.02409C8.26897 0.333332 10.329 1.9619 10.5356 4.12357C10.5474 4.26099 10.5525 4.38305 10.5541 4.55471L10.5547 5.07988C10.5552 5.12772 10.556 5.16979 10.5572 5.20902L10.5634 5.33984L10.5931 5.46459C10.6869 5.81201 10.8517 6.13683 11.0775 6.41881L11.178 6.53697L11.2191 6.58978C11.4899 6.99445 11.6446 7.46534 11.6667 7.97249L11.666 8.24136C11.6471 8.84198 11.4266 9.42207 11.0226 9.90545C10.4874 10.4734 9.76226 10.8262 8.99156 10.8971C7.00134 11.1133 4.99334 11.1133 3.00865 10.8977C2.23265 10.8231 1.50964 10.4713 0.951097 9.88155C0.539223 9.37942 0.320287 8.74719 0.333946 8.10829L0.33451 7.94945C0.358305 7.46368 0.512034 6.99323 0.779586 6.5868L0.824366 6.52919C1.13684 6.18662 1.35047 5.76736 1.44316 5.31537L1.43314 5.35597L1.43476 4.99983ZM6.02409 1.26356H5.97654C4.17769 1.26356 2.5387 2.56058 2.38646 4.20452C2.37866 4.29485 2.37245 4.38805 2.36759 4.48613L2.35689 4.79706L2.35254 5.40991L2.34295 5.50445C2.2163 6.122 1.92487 6.69395 1.49954 7.16024L1.53238 7.12217L1.47364 7.21939C1.3636 7.41766 1.29261 7.633 1.26456 7.84549L1.25291 7.97249L1.25281 8.11828C1.2438 8.54283 1.38725 8.95709 1.6358 9.26204C2.01922 9.66564 2.53789 9.91801 3.10113 9.97222C5.0262 10.1813 6.96848 10.1813 8.90092 9.97148C9.45806 9.92016 9.97637 9.66798 10.3389 9.28444C10.6133 8.95536 10.7583 8.53977 10.7477 8.10239L10.7483 7.99343C10.7342 7.67904 10.634 7.37417 10.4582 7.11146L10.4684 7.12837L10.3765 7.02057C10.0596 6.62939 9.82933 6.17567 9.70114 5.68931L9.65788 5.50545L9.6493 5.44367C9.64281 5.35342 9.63903 5.27321 9.63703 5.17676L9.63522 4.57366C9.63397 4.42029 9.62982 4.31705 9.6205 4.20884C9.46294 2.5605 7.82242 1.26356 6.02409 1.26356Z" fill="#ABBBC2"/>
</svg>
